<svg width="102" height="102" viewBox="0 0 102 102" fill="none" xmlns="http://www.w3.org/2000/svg">
<path d="M0 88.848C0 96.1123 5.88851 102 13.152 102H88.8476C96.1123 102 102 96.1115 102 88.848V13.1524C102 5.88771 96.1115 0 88.848 0H13.1524C5.88771 0 0 5.88851 0 13.152V88.8476V88.848Z" fill="#563D7C"/>
<path d="M42.2974 45.1183V30.6737H55.012C56.2232 30.6737 57.3906 30.7745 58.515 30.9765C59.6394 31.1781 60.6343 31.5383 61.4993 32.0575C62.3639 32.5766 63.056 33.2974 63.5752 34.2198C64.0939 35.1426 64.3537 36.3248 64.3537 37.7659C64.3537 40.3609 63.5752 42.2352 62.0181 43.3883C60.4614 44.5417 58.472 45.1183 56.0499 45.1183H42.2974V45.1183ZM28.7175 20.1211V81.8789H58.6449C61.4129 81.8789 64.1087 81.5331 66.7324 80.841C69.3561 80.1489 71.6913 79.0823 73.7385 77.6407C75.7853 76.1992 77.4145 74.3393 78.6254 72.0618C79.8366 69.7839 80.4418 67.0881 80.4418 63.9743C80.4418 60.1107 79.5047 56.8096 77.6309 54.0708C75.7566 51.3315 72.9165 49.4142 69.1107 48.3185C71.8786 46.9925 73.9692 45.2912 75.3821 43.2153C76.7945 41.1395 77.501 38.5448 77.501 35.4307C77.501 32.5476 77.0252 30.1259 76.0738 28.1651C75.1223 26.2048 73.7816 24.6334 72.0515 23.4512C70.3219 22.2691 68.2461 21.4184 65.824 20.8996C63.4023 20.3805 60.7208 20.1211 57.7799 20.1211H28.7175V20.1211ZM42.2974 71.3263V54.3732H57.0878C60.0287 54.3732 62.393 55.0505 64.1808 56.406C65.9682 57.7611 66.8623 60.0242 66.8623 63.1958C66.8623 64.8106 66.5882 66.1366 66.0403 67.1746C65.4925 68.2125 64.7573 69.0345 63.8346 69.6397C62.9122 70.2453 61.8452 70.6776 60.6343 70.9374C59.4231 71.1964 58.1548 71.3263 56.8284 71.3263H42.2974V71.3263Z" fill="white"/>
</svg>
