<svg width="112" height="112" viewBox="0 0 112 112" fill="none" xmlns="http://www.w3.org/2000/svg">
<g clip-path="url(#clip0)">
<rect x="54.7434" y="-1.8252" width="81.5951" height="80" rx="8" transform="rotate(45 54.7434 -1.8252)" fill="white"/>
<path d="M109.888 51.011L60.9875 2.11336C58.1731 -0.702826 53.6056 -0.702826 50.7876 2.11336L40.6332 12.2677L53.5146 25.149C56.5079 24.1375 59.9406 24.8161 62.3267 27.2022C64.7242 29.6037 65.3979 33.0656 64.3619 36.0686L76.776 48.4831C79.7794 47.4484 83.2449 48.1178 85.6437 50.5205C88.9962 53.8718 88.9962 59.3034 85.6437 62.6568C82.2902 66.0107 76.8587 66.0107 73.5035 62.6568C70.9817 60.1324 70.3587 56.429 71.6354 53.3223L60.0582 41.7452L60.0569 72.2114C60.8962 72.6263 61.6627 73.1745 62.3267 73.8345C65.6792 77.1857 65.6792 82.6177 62.3267 85.9738C58.9732 89.3259 53.5391 89.3259 50.1904 85.9738C46.8379 82.6177 46.8379 77.1862 50.1904 73.8349C50.9939 73.0311 51.9487 72.3945 52.9996 71.962V41.2119C51.9471 40.7822 50.9918 40.1453 50.1904 39.3389C47.6503 36.8023 47.0396 33.0752 48.3411 29.9563L35.6431 17.257L2.11312 50.7848C-0.704375 53.6036 -0.704375 58.1715 2.11312 60.9882L51.0142 109.887C53.8296 112.703 58.3962 112.703 61.215 109.887L109.887 61.2152C112.704 58.3977 112.704 53.8272 109.887 51.011" fill="#DE4C36"/>
</g>
<defs>
<clipPath id="clip0">
<rect width="112" height="112" fill="white"/>
</clipPath>
</defs>
</svg>
