<svg width="120" height="120" viewBox="0 0 120 120" fill="none" xmlns="http://www.w3.org/2000/svg">
<path d="M22.1325 102.004L13.7062 7.5H106.294L97.8562 101.989L59.9437 112.5L22.1325 102.004Z" fill="#E44F26"/>
<path d="M60 104.468L90.6375 95.9738L97.845 15.2288H60V104.468Z" fill="#F1662A"/>
<path d="M60 50.2759H44.6625L43.605 38.4072H60V26.8159H30.9375L31.215 29.9284L34.0613 61.8672H60V50.2759V50.2759Z" fill="#EBEBEB"/>
<path d="M60 80.3773L59.9475 80.3923L47.04 76.9085L46.215 67.6648H34.5788L36.2025 85.8598L59.9475 92.4523L60 92.4373V80.3773Z" fill="#EBEBEB"/>
<path d="M59.9587 50.2771V61.8683H74.2312L72.8887 76.9021L59.9587 80.3896V92.4496L83.7225 85.8609L83.895 83.9034L86.6175 53.3896L86.9025 50.2771H59.9587V50.2771Z" fill="white"/>
<path d="M59.9587 26.8159V38.4072H87.9562L88.1887 35.8047L88.7175 29.9284L88.995 26.8159H59.9587V26.8159Z" fill="white"/>
</svg>
