<svg width="120" height="120" viewBox="0 0 120 120" fill="none" xmlns="http://www.w3.org/2000/svg">
<path d="M22.1325 102.004L13.71 7.5H106.29L97.8563 101.989L59.9438 112.5L22.1325 102.004Z" fill="#1572B6"/>
<path d="M60 104.468L90.6375 95.9738L97.845 15.2288H60V104.468Z" fill="#33A9DC"/>
<path d="M60 49.4663H75.3375L76.395 37.5976H60V26.0063H89.0625L88.785 29.1151L85.9387 61.0576H60V49.4663V49.4663Z" fill="white"/>
<path d="M60.0712 79.5681L60.0187 79.5831L47.1112 76.0956L46.2862 66.8518H34.65L36.2737 85.0506L60.015 91.6431L60.0712 91.6281V79.5681V79.5681Z" fill="#EBEBEB"/>
<path d="M74.3512 60.5659L72.9562 76.0872L60.03 79.5747V91.6347L83.79 85.0497L83.9662 83.0922L85.98 60.5659H74.3512V60.5659Z" fill="white"/>
<path d="M60.0413 26.0063V37.5976H32.0438L31.8113 34.9913L31.2825 29.1151L31.005 26.0063H60.0413V26.0063Z" fill="#EBEBEB"/>
<path d="M60 49.4661V61.0573H47.2538L47.0213 58.4511L46.4963 52.5748L46.2188 49.4661H60V49.4661Z" fill="#EBEBEB"/>
</svg>
