<svg width="114" height="114" viewBox="0 0 114 114" fill="none" xmlns="http://www.w3.org/2000/svg">
<path d="M50.3558 14.25H64.4812V78.9771C58.4516 80.2145 52.3144 80.853 46.1592 80.883C28.9096 80.8652 19.9321 73.1595 19.9321 58.3609C19.9321 44.1109 29.4547 34.8484 44.2141 34.8484C46.2841 34.808 48.3501 35.0477 50.3558 35.5609V14.25V14.25ZM50.3558 46.8184C48.8202 46.3118 47.2094 46.0709 45.5928 46.1059C38.4678 46.1059 34.3246 50.4628 34.3246 58.0973C34.3246 65.5322 38.2683 69.6362 45.5037 69.6362C47.1276 69.6358 48.7493 69.5167 50.3558 69.2799V46.8362V46.8184Z" fill="#44B78B"/>
<path d="M86.9251 35.8354V68.2542C86.9251 79.4155 86.0879 84.7806 83.6369 89.4083C81.1354 94.1137 77.0451 97.7785 72.0944 99.7503L58.9915 93.5764C63.7517 91.9464 67.7385 88.6094 70.1813 84.2106C72.1977 80.2171 72.8354 75.5894 72.8354 63.4163V35.8354H86.9251Z" fill="#44B78B"/>
<path d="M72.821 14.3213H86.9428V28.671H72.821V14.3213Z" fill="#44B78B"/>
</svg>
