<svg width="70" height="105" viewBox="0 0 70 105" fill="none" xmlns="http://www.w3.org/2000/svg">
<g clip-path="url(#clip0)">
<path d="M17.5 105C27.16 105 35 97.16 35 87.5V70H17.5C7.84 70 0 77.84 0 87.5C0 97.16 7.84 105 17.5 105Z" fill="#0ACF83"/>
<path d="M0 52.5C0 42.84 7.84 35 17.5 35H35V70H17.5C7.84 70 0 62.16 0 52.5Z" fill="#A259FF"/>
<path d="M0 17.5C0 7.84 7.84 0 17.5 0H35V35H17.5C7.84 35 0 27.16 0 17.5Z" fill="#F24E1E"/>
<path d="M35 0H52.5C62.16 0 70 7.84 70 17.5C70 27.16 62.16 35 52.5 35H35V0Z" fill="#FF7262"/>
<path d="M70 52.5C70 62.16 62.16 70 52.5 70C42.84 70 35 62.16 35 52.5C35 42.84 42.84 35 52.5 35C62.16 35 70 42.84 70 52.5Z" fill="#1ABCFE"/>
</g>
<defs>
<clipPath id="clip0">
<rect width="70" height="105" fill="white"/>
</clipPath>
</defs>
</svg>
