<svg width="116" height="116" viewBox="0 0 116 116" fill="none" xmlns="http://www.w3.org/2000/svg">
<path d="M21.0251 89.1747L21.6414 88.3156L50.7139 33.1648L50.7755 32.5812L37.9611 8.51122C37.7265 8.07106 37.3595 7.71581 36.9119 7.49573C36.4643 7.27565 35.9588 7.20187 35.467 7.28485C34.9752 7.36782 34.5219 7.60334 34.1713 7.95808C33.8207 8.31283 33.5905 8.76884 33.5133 9.2616L21.0251 89.1747Z" fill="#FFC24A"/>
<path d="M21.3876 88.5232L21.8516 87.6169L50.6232 33.0389L37.8414 8.87466C37.6307 8.45443 37.2894 8.1138 36.8688 7.90382C36.4481 7.69383 35.9708 7.62579 35.5082 7.70989C35.0457 7.79399 34.6228 8.0257 34.303 8.37031C33.9832 8.71492 33.7837 9.15388 33.7343 9.62141L21.3876 88.5232Z" fill="#FFA712"/>
<path d="M60.1169 50.787L69.6579 40.9995L60.1133 22.7984C59.9032 22.4067 59.5908 22.0792 59.2094 21.851C58.828 21.6227 58.3918 21.5022 57.9473 21.5022C57.5028 21.5022 57.0666 21.6227 56.6852 21.851C56.3038 22.0792 55.9914 22.4067 55.7814 22.7984L50.681 32.5206V33.3508L60.1169 50.787Z" fill="#F4BD62"/>
<path d="M59.9465 50.3882L69.2229 40.8907L59.9465 23.2007C59.7947 22.8178 59.5353 22.4869 59.1997 22.2481C58.8641 22.0093 58.4666 21.8726 58.055 21.8546C57.6435 21.8366 57.2356 21.938 56.8804 22.1466C56.5252 22.3552 56.2379 22.6621 56.0532 23.0303L50.9275 32.9229L50.7752 33.4268L59.9465 50.3882Z" fill="#FFA50E"/>
<path d="M21.0323 89.1787L21.3114 88.896L22.3228 88.4863L59.5153 51.4316L59.9865 50.1483L50.7101 32.4656L21.0323 89.1787V89.1787Z" fill="#F6820C"/>
<path d="M61.3061 107.865L94.9752 89.0911L85.3544 29.8912C85.2854 29.4739 85.1028 29.0836 84.8266 28.7633C84.5504 28.4429 84.1912 28.2049 83.7886 28.0753C83.3859 27.9457 82.9554 27.9296 82.5441 28.0286C82.1329 28.1277 81.757 28.3382 81.4575 28.6369L21.0251 89.1744L54.4948 107.861C55.5353 108.442 56.7071 108.747 57.8986 108.747C59.0902 108.747 60.262 108.442 61.3025 107.861" fill="#FDE068"/>
<path d="M94.6669 88.9358L85.1259 30.1818C85.1091 29.7826 84.9742 29.3974 84.7384 29.075C84.5025 28.7525 84.1763 28.5072 83.801 28.3702C83.4257 28.2332 83.0182 28.2106 82.6301 28.3053C82.2419 28.4 81.8906 28.6077 81.6206 28.9022L21.3876 89.0627L54.4875 107.55C55.5197 108.126 56.6821 108.428 57.8641 108.428C59.0462 108.428 60.2086 108.126 61.2408 107.55L94.6669 88.9358Z" fill="#FCCA3F"/>
<path d="M61.3061 107.3C60.2656 107.881 59.0938 108.186 57.9023 108.186C56.7107 108.186 55.5389 107.881 54.4984 107.3L21.3006 88.8924L21.0251 89.1751L54.4948 107.862C55.5353 108.443 56.7071 108.747 57.8986 108.747C59.0902 108.747 60.262 108.443 61.3025 107.862L94.9752 89.0917L94.8918 88.5842L61.3061 107.3Z" fill="#EEAB37"/>
</svg>
