<svg width="100" height="100" viewBox="0 0 100 100" fill="none" xmlns="http://www.w3.org/2000/svg">
<path d="M0 0H100V100H0V0Z" fill="#F7DF1E"/>
<path d="M26.2938 83.5673L33.9461 78.9361C35.4227 81.5537 36.7656 83.7685 39.9871 83.7685C43.075 83.7685 45.0223 82.5607 45.0223 77.8623V45.9099H54.4195V77.9951C54.4195 87.7283 48.7141 92.1587 40.3899 92.1587C32.8723 92.1587 28.5086 88.2654 26.2934 83.5666" fill="black"/>
<path d="M59.5238 82.56L67.1754 78.1299C69.1898 81.4193 71.8078 83.8357 76.4391 83.8357C80.3332 83.8357 82.816 81.8889 82.816 79.2037C82.816 75.9818 80.2652 74.8404 75.9691 72.9615L73.6203 71.9537C66.8402 69.0682 62.343 65.4432 62.343 57.7908C62.343 50.7424 67.7129 45.3721 76.1039 45.3721C82.0781 45.3721 86.3742 47.4533 89.4617 52.8904L82.1445 57.5896C80.5332 54.7033 78.7887 53.5623 76.1035 53.5623C73.3512 53.5623 71.6059 55.3076 71.6059 57.5896C71.6059 60.4088 73.3512 61.5506 77.3785 63.2959L79.7277 64.3025C87.716 67.7264 92.2133 71.2166 92.2133 79.0697C92.2133 87.5283 85.568 92.1596 76.6402 92.1596C67.9141 92.1596 62.2754 87.9978 59.5234 82.5603" fill="black"/>
</svg>
