<svg width="37" height="32" viewBox="0 0 37 32" fill="none" xmlns="http://www.w3.org/2000/svg">
<path d="M25.291 27.2266C24.1836 28.5527 22.6182 29.585 20.5947 30.3232C18.5713 31.0479 16.3291 31.4102 13.8682 31.4102C11.2842 31.4102 9.01465 30.8496 7.05957 29.7285C5.11816 28.5938 3.61426 26.9531 2.54785 24.8066C1.49512 22.6602 0.955078 20.1377 0.927734 17.2393V15.209C0.927734 12.2285 1.42676 9.65137 2.4248 7.47754C3.43652 5.29004 4.88574 3.62207 6.77246 2.47363C8.67285 1.31152 10.8945 0.730469 13.4375 0.730469C16.9785 0.730469 19.7471 1.57812 21.7432 3.27344C23.7393 4.95508 24.9219 7.40918 25.291 10.6357H19.3027C19.0293 8.92676 18.4209 7.67578 17.4775 6.88281C16.5479 6.08984 15.2627 5.69336 13.6221 5.69336C11.5303 5.69336 9.9375 6.47949 8.84375 8.05176C7.75 9.62402 7.19629 11.9619 7.18262 15.0654V16.9727C7.18262 20.1035 7.77734 22.4688 8.9668 24.0684C10.1562 25.668 11.8994 26.4678 14.1963 26.4678C16.5068 26.4678 18.1543 25.9756 19.1387 24.9912V19.8438H13.54V15.3115H25.291V27.2266ZM30.2129 28.0879C30.2129 27.1445 30.5273 26.3789 31.1562 25.791C31.7988 25.2031 32.5986 24.9092 33.5557 24.9092C34.5264 24.9092 35.3262 25.2031 35.9551 25.791C36.5977 26.3789 36.9189 27.1445 36.9189 28.0879C36.9189 29.0176 36.6045 29.7764 35.9756 30.3643C35.3467 30.9385 34.54 31.2256 33.5557 31.2256C32.585 31.2256 31.7852 30.9385 31.1562 30.3643C30.5273 29.7764 30.2129 29.0176 30.2129 28.0879Z" fill="#FFA45B"/>
</svg>
