<svg width="107" height="106" viewBox="0 0 107 106" fill="none" xmlns="http://www.w3.org/2000/svg">
<path d="M53.0469 0.0300293C25.9492 0.0300293 27.6411 11.717 27.6411 11.717L27.6712 23.8252H53.5301V27.4603H17.4005C17.4005 27.4603 0.0606079 25.5045 0.0606079 52.6967C0.0606079 79.8896 15.1953 78.9252 15.1953 78.9252H24.2276V66.3066C24.2276 66.3066 23.7406 51.2546 39.1206 51.2546H64.768C64.768 51.2546 79.1775 51.4862 79.1775 37.4044V14.121C79.1775 14.121 81.366 0.0300293 53.0469 0.0300293ZM38.7883 8.17249C39.3994 8.17195 40.0046 8.29124 40.5692 8.52356C41.1339 8.75587 41.6469 9.09664 42.079 9.52637C42.5111 9.9561 42.8537 10.4663 43.0873 11.0279C43.3209 11.5895 43.4409 12.1914 43.4403 12.7991C43.4409 13.4068 43.3209 14.0087 43.0873 14.5702C42.8537 15.1318 42.5111 15.6421 42.079 16.0718C41.6469 16.5015 41.1339 16.8423 40.5692 17.0746C40.0046 17.3069 39.3994 17.4262 38.7883 17.4257C38.1773 17.4262 37.5721 17.3069 37.0074 17.0746C36.4428 16.8423 35.9297 16.5015 35.4977 16.0718C35.0656 15.6421 34.7229 15.1318 34.4893 14.5702C34.2557 14.0087 34.1358 13.4068 34.1363 12.7991C34.1358 12.1914 34.2557 11.5895 34.4893 11.0279C34.7229 10.4663 35.0656 9.9561 35.4977 9.52637C35.9297 9.09664 36.4428 8.75587 37.0074 8.52356C37.5721 8.29124 38.1773 8.17195 38.7883 8.17249V8.17249Z" fill="url(#paint0_linear)"/>
<path d="M53.8164 105.637C80.9142 105.637 79.2222 93.9497 79.2222 93.9497L79.1921 81.842H53.3328V78.2068H89.4625C89.4625 78.2068 106.802 80.1626 106.802 52.9697C106.802 25.7771 91.6677 26.7415 91.6677 26.7415H82.6354V39.3597C82.6354 39.3597 83.1223 54.4117 67.7423 54.4117H42.0949C42.0949 54.4117 27.6854 54.1802 27.6854 68.2624V91.5462C27.6854 91.5462 25.4974 105.637 53.816 105.637H53.8164ZM68.075 97.4951C67.4639 97.4956 66.8588 97.3763 66.2941 97.144C65.7295 96.9117 65.2164 96.5709 64.7843 96.1412C64.3522 95.7115 64.0096 95.2012 63.776 94.6396C63.5424 94.0781 63.4225 93.4762 63.423 92.8685C63.4224 92.2607 63.5423 91.6588 63.7759 91.0972C64.0095 90.5356 64.3521 90.0253 64.7842 89.5955C65.2163 89.1657 65.7293 88.8249 66.294 88.5926C66.8587 88.3602 67.4639 88.2409 68.075 88.2415C68.6861 88.2409 69.2912 88.3602 69.8559 88.5925C70.4206 88.8249 70.9336 89.1656 71.3657 89.5954C71.7978 90.0251 72.1404 90.5353 72.374 91.0969C72.6076 91.6585 72.7276 92.2603 72.727 92.8681C72.7276 93.4758 72.6076 94.0777 72.374 94.6392C72.1404 95.2008 71.7978 95.711 71.3657 96.1408C70.9336 96.5705 70.4206 96.9113 69.8559 97.1436C69.2912 97.3759 68.6861 97.4952 68.075 97.4947V97.4951Z" fill="url(#paint1_linear)"/>
<defs>
<linearGradient id="paint0_linear" x1="10.3184" y1="9.52873" x2="62.9296" y2="61.901" gradientUnits="userSpaceOnUse">
<stop stop-color="#387EB8"/>
<stop offset="1" stop-color="#366994"/>
</linearGradient>
<linearGradient id="paint1_linear" x1="42.7872" y1="42.974" x2="99.2998" y2="96.6905" gradientUnits="userSpaceOnUse">
<stop stop-color="#FFE052"/>
<stop offset="1" stop-color="#FFC331"/>
</linearGradient>
</defs>
</svg>
