<svg width="111" height="99" viewBox="0 0 111 99" fill="none" xmlns="http://www.w3.org/2000/svg">
<g clip-path="url(#clip0)">
<path d="M91.2641 32.0879C90.0828 31.6816 88.8915 31.3052 87.6913 30.9591C87.8929 30.1333 88.0785 29.3174 88.2433 28.5159C90.948 15.3541 89.1798 4.7507 83.1403 1.25955C77.3497 -2.08729 67.8795 1.40256 58.3153 9.74663C57.3727 10.5704 56.451 11.418 55.5512 12.2885C54.9487 11.7096 54.3357 11.142 53.7123 10.5859C43.6885 1.66422 33.6412 -2.09598 27.6082 1.40516C21.8228 4.76244 20.1096 14.7304 22.5447 27.2041C22.787 28.4395 23.0605 29.6685 23.3651 30.89C21.9429 31.2951 20.5706 31.7263 19.2572 32.1853C7.50507 36.2927 0 42.7296 0 49.4063C0 56.3021 8.05704 63.2188 20.2974 67.4128C21.2897 67.7514 22.2904 68.0651 23.2983 68.3538C22.9709 69.6693 22.6803 70.9938 22.4268 72.3257C20.1053 84.5829 21.9182 94.3153 27.688 97.6513C33.6473 101.096 43.6494 97.5556 53.3884 89.0212C54.1781 88.3274 54.9504 87.6139 55.7047 86.8814C56.6792 87.824 57.6797 88.7391 58.7051 89.6258C68.1393 97.7634 77.4563 101.049 83.2205 97.7043C89.1742 94.2492 91.1093 83.794 88.5971 71.0739C88.3992 70.0773 88.1772 69.0857 87.9315 68.0999C88.6339 67.8913 89.3234 67.6766 89.9954 67.4532C102.721 63.227 111 56.3942 111 49.4063C111 42.7052 103.253 36.2249 91.2641 32.0879V32.0879ZM88.5043 62.9415C87.8973 63.1427 87.2746 63.337 86.6398 63.5261C85.235 59.0678 83.3393 54.3275 81.0192 49.4293C83.2331 44.6481 85.0559 39.9682 86.4213 35.5391C87.5569 35.8685 88.6586 36.2158 89.721 36.5822C99.9928 40.1273 106.258 45.3679 106.258 49.4063C106.258 53.7076 99.4916 59.2917 88.5043 62.9415V62.9415ZM83.9455 71.9971C85.0564 77.6215 85.2146 82.707 84.4788 86.6827C83.818 90.2552 82.4886 92.6367 80.8444 93.5907C77.3466 95.6206 69.8658 92.9822 61.7979 86.0225C60.8442 85.1981 59.9135 84.3473 59.0069 83.4711C62.1349 80.0421 65.2606 76.0559 68.3114 71.6285C73.6775 71.1512 78.7471 70.3706 83.3445 69.3052C83.5709 70.2211 83.772 71.1191 83.9455 71.9971V71.9971ZM37.8423 93.24C34.4247 94.4496 31.7026 94.4844 30.0572 93.5333C26.5559 91.5092 25.1003 83.6945 27.0857 73.2124C27.3217 71.9737 27.592 70.7418 27.8961 69.5182C32.4428 70.5266 37.4755 71.2516 42.8542 71.6889C45.9258 76.0211 49.1418 80.003 52.3829 83.4898C51.6941 84.1579 50.989 84.8089 50.2683 85.4422C45.9614 89.2159 41.6458 91.8934 37.8423 93.24V93.24ZM21.8314 62.9149C16.4189 61.0603 11.949 58.6501 8.8852 56.02C6.13188 53.6568 4.74221 51.3101 4.74221 49.4063C4.74221 45.3544 10.7679 40.1864 20.8181 36.6739C22.0378 36.248 23.3143 35.8459 24.639 35.4686C26.0282 39.9977 27.8502 44.7333 30.0489 49.5219C27.8215 54.3814 25.9736 59.1926 24.5709 63.7751C23.6509 63.5109 22.7374 63.2241 21.8314 62.9149V62.9149ZM27.1985 26.2909C25.1124 15.604 26.4978 7.54249 29.9843 5.51917C33.6976 3.36415 41.909 6.43673 50.564 14.1406C51.1283 14.6441 51.6836 15.1578 52.2294 15.6814C49.0043 19.153 45.8179 23.1053 42.7736 27.4119C37.5531 27.897 32.556 28.6759 27.9616 29.7195C27.6785 28.5834 27.4241 27.4403 27.1985 26.2913V26.2909ZM75.0789 38.1431C73.9937 36.264 72.8683 34.4086 71.7034 32.5782C75.245 33.0272 78.6383 33.6231 81.8248 34.3516C80.8683 37.4255 79.6759 40.6389 78.2723 43.9336C77.2464 41.9823 76.1817 40.0517 75.0789 38.1431V38.1431ZM55.5533 19.0787C57.7404 21.4541 59.9309 24.1059 62.0854 26.9833C57.7148 26.7764 53.3369 26.7755 48.9662 26.9807C51.1229 24.1298 53.332 21.4814 55.5533 19.0787ZM35.9024 38.1757C34.8134 40.069 33.7686 41.9875 32.7688 43.9296C31.3883 40.6467 30.2067 37.4185 29.242 34.3012C32.409 33.5909 35.7862 33.0102 39.3053 32.5695C38.1274 34.4111 36.9928 36.2802 35.9024 38.1752V38.1757ZM39.4063 66.5813C35.7706 66.1744 32.3426 65.6237 29.1765 64.9326C30.1564 61.7596 31.364 58.4628 32.7745 55.1094C33.7782 57.053 34.8273 58.9727 35.9211 60.8668C37.0458 62.8141 38.2105 64.7214 39.4063 66.5813ZM55.6843 80.0686C53.4365 77.638 51.1948 74.9488 49.0056 72.0566C51.1311 72.1401 53.2978 72.1827 55.5 72.1827C57.7625 72.1827 59.999 72.1318 62.2003 72.0336C60.0389 74.9779 57.8566 77.671 55.6843 80.0686ZM78.317 54.9381C79.8008 58.3285 81.0512 61.6079 82.0442 64.7266C78.826 65.4629 75.3512 66.0558 71.69 66.4961C72.8632 64.6316 73.9993 62.744 75.0976 60.8342C76.2142 58.8931 77.2876 56.9272 78.317 54.9381V54.9381ZM70.9901 58.4593C69.3087 61.3873 67.5328 64.2597 65.6652 67.072C62.2821 67.3122 58.8916 67.4315 55.5 67.4297C52.0456 67.4297 48.6856 67.3219 45.4502 67.1115C43.5338 64.3058 41.724 61.4283 40.0246 58.4854H40.025C38.3337 55.558 36.7538 52.5673 35.2889 49.5197C36.7501 46.4715 38.3251 43.4793 40.0107 40.5498L40.0103 40.5502C41.6952 37.6198 43.4906 34.7547 45.3925 31.961C48.6934 31.7106 52.0785 31.5802 55.4996 31.5802H55.5C58.9367 31.5802 62.3261 31.7119 65.6262 31.964C67.5088 34.7536 69.2927 37.6089 70.9745 40.5246C72.6657 43.4477 74.2616 46.4252 75.7597 49.4524C74.277 52.5105 72.6861 55.5147 70.9901 58.4593V58.4593ZM80.772 5.37748C84.4888 7.52641 85.9344 16.1921 83.599 27.5562C83.4499 28.2812 83.2825 29.0197 83.1004 29.7686C78.4948 28.7028 73.4941 27.9104 68.2585 27.418C65.2086 23.064 62.0481 19.1056 58.8755 15.6788C59.707 14.8753 60.5583 14.0927 61.4285 13.3317C69.6235 6.18289 77.2825 3.36024 80.772 5.37748V5.37748ZM55.5 39.4701C60.9741 39.4701 65.412 43.9188 65.412 49.4063C65.412 54.8938 60.9741 59.3425 55.5 59.3425C50.0259 59.3425 45.588 54.8938 45.588 49.4063C45.588 43.9188 50.0259 39.4701 55.5 39.4701V39.4701Z" fill="#00D8FF"/>
</g>
<defs>
<clipPath id="clip0">
<rect width="111" height="99" fill="white"/>
</clipPath>
</defs>
</svg>
