<svg width="116" height="116" viewBox="0 0 116 116" fill="none" xmlns="http://www.w3.org/2000/svg">
<path d="M103.994 7.25H12.006C9.37933 7.25 7.25 9.37933 7.25 12.006V103.994C7.25 106.621 9.37933 108.75 12.006 108.75H103.994C106.621 108.75 108.75 106.621 108.75 103.994V12.006C108.75 9.37933 106.621 7.25 103.994 7.25Z" fill="#3178C6"/>
<path fill-rule="evenodd" clip-rule="evenodd" d="M66.1381 86.1268V97.2483C68.1588 98.2457 70.3123 98.9476 72.5326 99.3327C75.0984 99.8064 77.7028 100.039 80.3119 100.029C82.8548 100.041 85.3918 99.7844 87.8809 99.2638C90.1156 98.8122 92.2478 97.952 94.1703 96.7263C95.955 95.5742 97.4259 93.9974 98.4514 92.1371C100.288 88.2849 100.53 83.8636 99.1256 79.8338C98.5329 78.3268 97.6498 76.9511 96.5265 75.7847C95.3207 74.5444 93.9511 73.4748 92.4556 72.6055C90.7339 71.5972 88.945 70.7082 87.1015 69.9448C85.6515 69.343 84.3465 68.7582 83.1865 68.1903C82.1562 67.697 81.1702 67.1161 80.2394 66.4539C79.5103 65.9428 78.8771 65.3072 78.3689 64.5762C77.9297 63.9124 77.7011 63.1317 77.7127 62.3359C77.7031 61.6035 77.9072 60.8842 78.3 60.266C78.7267 59.6191 79.2958 59.0784 79.9639 58.6855C80.7805 58.2048 81.6691 57.8584 82.5956 57.6597C83.7332 57.407 84.8959 57.2853 86.0611 57.2972C87.0411 57.3005 88.0197 57.3708 88.9901 57.5074C90.0381 57.6491 91.0749 57.8635 92.0931 58.149C93.1288 58.4361 94.1417 58.7996 95.1236 59.2365C96.0764 59.6613 96.9878 60.1734 97.846 60.7663V50.3879C96.0593 49.7119 94.2064 49.2259 92.3179 48.9379C90.0374 48.6061 87.7348 48.4498 85.4304 48.4703C82.9114 48.4567 80.3998 48.7427 77.9484 49.3222C75.7326 49.8285 73.6257 50.7285 71.7279 51.9793C69.965 53.1537 68.5093 54.7336 67.483 56.5867C66.3954 58.6445 65.8572 60.9481 65.9206 63.2748C65.8403 66.3516 66.8537 69.3573 68.7808 71.7573C71.1449 74.4183 74.1261 76.4585 77.4626 77.6987C78.9851 78.327 80.4049 78.9421 81.722 79.5438C82.9103 80.0726 84.0525 80.6994 85.1368 81.4179C86.0113 81.9868 86.7793 82.7045 87.406 83.5386C87.9571 84.295 88.2495 85.2091 88.2397 86.1449C88.2447 86.8462 88.0647 87.5364 87.7178 88.1459C87.3322 88.8009 86.7905 89.3501 86.1409 89.7446C85.328 90.2401 84.4388 90.5978 83.5091 90.8031C82.2982 91.0738 81.0596 91.2015 79.8189 91.1837C77.384 91.1792 74.9685 90.7499 72.6812 89.9149C70.2917 89.0526 68.0757 87.7697 66.1381 86.1268V86.1268ZM47.4549 58.439H61.9549V49.2787H21.5252V58.439H35.96V99.2348H47.4549V58.439Z" fill="white"/>
</svg>
